<svg xmlns="http://www.w3.org/2000/svg" viewBox="0 0 457 399">
  <defs>
    <style>
      .a {
        fill: #e0dfd9;
      }

      .a, .b, .c, .d {
        stroke: #000;
        stroke-miterlimit: 10;
      }

      .b {
        fill: none;
      }

      .c {
        fill: #282823;
      }

      .d {
        fill: #fbff5f;
      }

      .e {
        font-size: 18px;
        font-family: MyriadPro-Regular, Myriad Pro;
      }

      .f {
        letter-spacing: 0em;
      }

      .g {
        letter-spacing: -0.01em;
      }
    </style>
  </defs>
  <title>whetherwheelwithlights</title>
  <ellipse class="a" cx="228.5" cy="199.5" rx="228" ry="199"/>
  <ellipse class="b" cx="228.5" cy="182.5" rx="223" ry="182"/>
  <ellipse class="b" cx="223.5" cy="185.5" rx="141" ry="122"/>
  <ellipse class="b" cx="223" cy="199.5" rx="136.5" ry="108"/>
  <g>
    <ellipse id="00" class="d" cx="231.5" cy="342" rx="16" ry="11.5"/>
    <ellipse id="01" class="c" cx="186" cy="336" rx="15.5" ry="12.5"/>
    <ellipse id="02" class="c" cx="148.5" cy="325.5" rx="13" ry="11"/>
    <ellipse id="03" class="c" cx="115" cy="307.5" rx="14.5" ry="12"/>
    <ellipse id="04" class="c" cx="85.5" cy="279.5" rx="15" ry="11"/>
    <ellipse id="05" class="c" cx="59" cy="245" rx="16.5" ry="11.5"/>
    <ellipse id="06" class="c" cx="45.5" cy="203" rx="17" ry="12.5"/>
    <ellipse id="07" class="d" cx="48" cy="163" rx="14.5" ry="11.5"/>
    <ellipse id="08" class="d" cx="67" cy="126.5" rx="15.5" ry="11"/>
    <ellipse id="09" class="d" cx="91" cy="89" rx="15.5" ry="10.5"/>
    <ellipse id="10" class="d" cx="127.5" cy="59" rx="16" ry="11.5"/>
    <ellipse id="11" class="d" cx="175.5" cy="43" rx="14" ry="9.5"/>
    <ellipse id="12" class="d" cx="223.5" cy="36" rx="16" ry="11.5"/>
    <ellipse id="13" class="d" cx="273" cy="41" rx="14.5" ry="11.5"/>
    <ellipse id="14" class="d" cx="315" cy="57" rx="14.5" ry="9.5"/>
    <ellipse id="15" class="d" cx="352" cy="80" rx="12.5" ry="9.5"/>
    <ellipse id="16" class="d" cx="378.5" cy="101.5" rx="14" ry="10"/>
    <ellipse id="17" class="d" cx="392.5" cy="137.5" rx="14" ry="11"/>
    <ellipse id="18" class="d" cx="407.5" cy="179" rx="15" ry="11.5"/>
    <ellipse id="19" class="d" cx="401.5" cy="215" rx="15" ry="11.5"/>
    <ellipse id="20" class="d" cx="387" cy="246" rx="14.5" ry="11.5"/>
    <ellipse id="21" class="d" cx="363" cy="277.5" rx="15.5" ry="13"/>
    <ellipse id="22" class="d" cx="329" cy="307" rx="14.5" ry="11.5"/>
    <ellipse id="23" class="c" cx="286.5" cy="331" rx="14" ry="11.5"/>
    <text class="e" transform="translate(190 293.78)">MIDNIGHT</text>
    <text class="e" transform="translate(198.24 114.44)">NOON</text>
    <text class="e" transform="translate(98.51 208.17)">6 <tspan class="f" x="13.05" y="0">A</tspan><tspan x="23.99" y="0">M</tspan></text>
    <text class="e" transform="translate(302.3 202.96)">6 <tspan class="g" x="13.05" y="0">P</tspan><tspan x="22.41" y="0">M</tspan></text>
  </g>
</svg>
